<?xml version="1.0" standalone="no"?>
<!DOCTYPE svg PUBLIC "-//W3C//DTD SVG 20010904//EN"
 "http://www.w3.org/TR/2001/REC-SVG-20010904/DTD/svg10.dtd">
<svg version="1.0" xmlns="http://www.w3.org/2000/svg"
 width="200.000000pt" height="200.000000pt" viewBox="0 0 200.000000 200.000000"
 preserveAspectRatio="xMidYMid meet">

<g transform="translate(0.000000,200.000000) scale(0.100000,-0.100000)"
fill="#000000" stroke="none">
<path d="M865 1991 c-204 -26 -419 -133 -571 -285 -98 -98 -197 -253 -233
-364 -53 -162 -56 -182 -55 -347 0 -122 4 -173 17 -215 10 -30 25 -80 34 -110
53 -170 195 -360 358 -477 121 -88 186 -118 365 -169 89 -26 358 -26 440 -1
30 10 80 25 110 34 170 53 360 195 477 358 88 121 118 186 169 365 26 89 26
358 1 440 -10 30 -25 80 -34 110 -53 170 -195 360 -358 477 -119 86 -182 116
-355 166 -63 19 -275 29 -365 18z m585 -478 c81 -30 167 -133 208 -248 50
-145 48 -380 -5 -520 -22 -59 -62 -137 -81 -160 -31 -38 -91 -77 -139 -91 -98
-30 -183 20 -265 154 -21 34 -38 66 -38 72 0 5 -4 10 -9 10 -5 0 -12 8 -15 18
-8 22 -72 92 -85 92 -6 0 -11 4 -11 10 0 16 -71 42 -120 43 -82 3 -142 -38
-235 -163 -72 -97 -101 -119 -157 -120 -83 0 -137 51 -180 171 -20 57 -23 82
-22 219 0 146 2 158 26 211 37 79 88 119 151 119 57 0 98 -20 141 -70 91 -104
153 -158 199 -174 60 -20 66 -20 133 3 36 13 68 34 92 60 53 57 53 56 107 165
98 193 178 246 305 199z"/>
</g>
</svg>
