<?xml version="1.0" encoding="utf-8"?><!-- Uploaded to: SVG Repo, www.svgrepo.com, Generator: SVG Repo Mixer Tools -->
<svg fill="#000000" width="800px" height="800px" viewBox="0 0 24 24" id="xrp" data-name="Flat Color" xmlns="http://www.w3.org/2000/svg" class="icon flat-color"><path id="primary" d="M12,11a2,2,0,0,1-1.47-.63L4.27,3.68A1,1,0,0,1,5.73,2.32L12,9l6.28-6.68a1,1,0,1,1,1.46,1.36l-6.26,6.69A2,2,0,0,1,12,11Zm7.68,10.73a1,1,0,0,0,.05-1.41l-6.26-6.69a2.1,2.1,0,0,0-2.94,0L4.27,20.32a1,1,0,1,0,1.46,1.36L12,15l6.26,6.68A1,1,0,0,0,19,22,1,1,0,0,0,19.68,21.73Z" style="fill: rgb(0, 0, 0);"></path></svg>